<?xml version="1.0" encoding="utf-8"?>
<!-- Generator: Adobe Illustrator 16.0.0, SVG Export Plug-In . SVG Version: 6.00 Build 0)  -->
<!DOCTYPE svg PUBLIC "-//W3C//DTD SVG 1.0//EN" "http://www.w3.org/TR/2001/REC-SVG-20010904/DTD/svg10.dtd">
<svg version="1.0" id="Capa_1" xmlns="http://www.w3.org/2000/svg" xmlns:xlink="http://www.w3.org/1999/xlink" x="0px" y="0px"
	 width="146.43px" height="107.601px" viewBox="0 0 146.43 107.601" enable-background="new 0 0 146.43 107.601"
	 xml:space="preserve">
<path fill-rule="evenodd" clip-rule="evenodd" fill="#FFFFFF" d="M73.299,54.73c-3.439,0.386-6.73-0.207-9.84-1.676
	c-5.333-2.525-9.137-6.608-11.733-11.85c-1.609-3.242-2.652-6.682-3.404-10.219c-0.691-3.256-1.066-6.538-1.186-9.855
	c-0.096-2.577,0.027-5.153,0.294-7.72c0.346-3.364,1.012-6.662,1.997-9.892c0.329-1.083,0.742-2.137,1.11-3.208
	c0.086-0.252,0.189-0.347,0.502-0.3c2.886,0.444,5.699,1.163,8.459,2.112c5.579,1.906,10.702,4.673,15.415,8.199
	c2.936,2.197,5.641,4.646,8.039,7.426c0.003,0.227-0.194,0.234-0.33,0.294c-1.303,0.61-2.607,1.215-3.865,1.916
	c-1.015,0.561-2.014,1.154-2.975,1.799c-0.189,0.126-0.373,0.248-0.608,0.122c-1.103-0.885-2.162-1.821-3.296-2.672
	c-1.466-1.094-2.979-2.112-4.554-3.042c-1.678-0.994-3.419-1.857-5.22-2.599c-1.28-0.528-2.59-0.977-3.93-1.343
	c-0.318-0.089-0.482-0.03-0.575,0.317c-0.497,1.853-0.793,3.739-1.008,5.646c-0.259,2.268-0.157,4.536-0.136,6.801
	c0.01,1.245,0.188,2.495,0.368,3.733c0.286,1.968,0.662,3.92,1.179,5.845c0.797,2.97,1.837,5.853,3.313,8.557
	c1.169,2.146,2.617,4.096,4.41,5.776c0.119,0.109,0.232,0.227,0.338,0.349c0.667,0.601,1.119,1.397,1.825,1.958
	c0.718,0.862,1.574,1.55,2.564,2.07c0.772,0.494,1.613,0.845,2.468,1.165C73.072,54.5,73.283,54.491,73.299,54.73z"/>
<path fill-rule="evenodd" clip-rule="evenodd" fill="#FFFFFF" d="M73.299,54.73c-0.799-0.357-1.639-0.635-2.407-1.066
	c-0.175-0.101-0.395-0.138-0.51-0.33c0.16-0.136,0.313-0.029,0.453,0.032c1.042,0.457,2.149,0.682,3.268,0.696
	c1.208,0.017,2.402-0.203,3.549-0.637c3.148-1.188,5.591-3.273,7.603-5.924c1.522-1.998,2.651-4.219,3.595-6.527
	c1.023-2.505,1.765-5.095,2.26-7.758c0.479-2.569,0.535-5.156,0.48-7.75c-0.012-0.574-0.16-1.139-0.179-1.713
	c-0.013-0.37-0.243-0.358-0.526-0.317c-1.904,0.281-3.756,0.759-5.563,1.405c-2.315,0.828-4.504,1.907-6.604,3.179
	c-2.641,1.599-5.034,3.498-7.19,5.701c-1.869,1.907-3.36,4.067-4.354,6.55c-0.696,1.742-1.131,3.54-1.092,5.429
	c0.035,1.777,0.508,3.428,1.487,4.924c0.128,0.195,0.374,0.363,0.256,0.66c-0.296-0.172-0.492-0.451-0.713-0.702
	c-0.351-0.401-0.706-0.8-1.06-1.202c-0.635-0.819-1.137-1.713-1.549-2.663c-0.525-1.209-0.889-2.457-1.095-3.764
	c-0.208-1.325-0.17-2.65-0.092-3.967c0.082-1.429,0.454-2.818,0.931-4.169c1.082-3.055,2.759-5.717,5.023-8.032
	c1.709-1.749,3.573-3.305,5.562-4.709c0.132-0.091,0.266-0.185,0.416-0.253c0.375,0.114,0.561-0.227,0.798-0.376
	c2.15-1.396,4.422-2.566,6.771-3.587c0.051-0.021,0.091-0.071,0.137-0.109c0.879-0.322,1.756-0.66,2.643-0.968
	c2.141-0.74,4.325-1.309,6.557-1.711c1.8-0.323,3.611-0.484,5.432-0.606c0.41-0.027,0.577,0.123,0.656,0.506
	c0.422,2.025,0.779,4.063,0.938,6.139c0.122,1.604,0.191,3.208,0.119,4.808c-0.092,2.026-0.285,4.045-0.635,6.047
	c-0.395,2.248-0.917,4.462-1.648,6.626c-1.311,3.868-3.024,7.535-5.771,10.622c-2.08,2.337-4.551,4.167-7.491,5.291
	c-2.197,0.84-4.472,1.196-6.836,0.974C75.676,55.359,74.483,55.083,73.299,54.73z"/>
<g>
	<path fill="#FFFFFF" d="M6.629,92.787c1.878,0,2.999,0.454,3.362,1.363c0.133,0.315,0.2,0.594,0.2,0.836
		c0,0.921-0.191,1.64-0.573,2.153c-0.381,0.516-0.809,0.882-1.281,1.1c-0.921,0.4-1.86,0.6-2.817,0.6
		c-0.484,0-0.942-0.026-1.372-0.081s-0.712-0.112-0.845-0.173c-0.073,0.484-0.109,0.902-0.109,1.254s0.048,0.631,0.146,0.836
		c0.193,0.377,0.611,0.57,1.254,0.582c0.279,0.012,0.742,0.018,1.391,0.018c0.648,0,1.645-0.096,2.99-0.29l-0.2,1.235
		c-1.26,0.352-2.678,0.527-4.253,0.527c-0.133,0-0.272,0-0.418,0c-1.151-0.012-1.909-0.447-2.272-1.309
		c-0.194-0.46-0.291-1.027-0.291-1.699s0.066-1.357,0.2-2.054c0.133-0.696,0.251-1.233,0.354-1.608
		c0.103-0.375,0.236-0.754,0.4-1.137c0.164-0.381,0.357-0.693,0.582-0.936c0.224-0.242,0.5-0.461,0.827-0.654
		c0.618-0.375,1.521-0.563,2.708-0.563H6.629z M3.466,97.422c0.339,0.036,0.624,0.055,0.854,0.055c0.23,0,0.4,0,0.509,0
		s0.306-0.013,0.591-0.036c0.284-0.024,0.554-0.058,0.809-0.101c0.254-0.042,0.512-0.108,0.772-0.2
		c0.26-0.09,0.488-0.196,0.682-0.317c0.545-0.364,0.818-0.872,0.818-1.526c0-0.364-0.109-0.601-0.327-0.709
		c-0.352-0.17-0.897-0.255-1.636-0.255c-1.018,0-1.727,0.218-2.126,0.654c-0.291,0.315-0.479,0.618-0.563,0.909
		c-0.122,0.352-0.209,0.657-0.264,0.918c-0.055,0.26-0.082,0.402-0.082,0.427C3.491,97.313,3.478,97.374,3.466,97.422z"/>
	<path fill="#FFFFFF" d="M10.845,98.131l0.255-1.563h5.707l-0.254,1.563H10.845z"/>
	<path fill="#FFFFFF" d="M19.86,102.62c-1.479,0-2.217-0.793-2.217-2.381c0-0.327,0.03-0.679,0.091-1.055l1.708-10.796h1.672
		l-1.69,10.687c-0.158,0.945-0.127,1.527,0.091,1.746c0.121,0.121,0.46,0.254,1.018,0.399c0.557,0.146,0.842,0.218,0.854,0.218
		l-0.182,1.182H19.86z"/>
	<path fill="#FFFFFF" d="M26.949,92.787c1.878,0,2.999,0.454,3.362,1.363c0.133,0.315,0.2,0.594,0.2,0.836
		c0,0.921-0.191,1.64-0.573,2.153c-0.381,0.516-0.809,0.882-1.281,1.1c-0.921,0.4-1.86,0.6-2.817,0.6
		c-0.484,0-0.942-0.026-1.372-0.081s-0.712-0.112-0.845-0.173c-0.073,0.484-0.109,0.902-0.109,1.254s0.048,0.631,0.146,0.836
		c0.193,0.377,0.611,0.57,1.254,0.582c0.279,0.012,0.742,0.018,1.391,0.018c0.648,0,1.645-0.096,2.99-0.29l-0.2,1.235
		c-1.26,0.352-2.678,0.527-4.253,0.527c-0.133,0-0.272,0-0.418,0c-1.151-0.012-1.909-0.447-2.272-1.309
		c-0.194-0.46-0.291-1.027-0.291-1.699s0.066-1.357,0.2-2.054c0.133-0.696,0.251-1.233,0.354-1.608
		c0.103-0.375,0.236-0.754,0.4-1.137c0.164-0.381,0.357-0.693,0.582-0.936c0.224-0.242,0.5-0.461,0.827-0.654
		c0.618-0.375,1.521-0.563,2.708-0.563H26.949z M23.787,97.422c0.339,0.036,0.624,0.055,0.854,0.055c0.23,0,0.4,0,0.509,0
		s0.306-0.013,0.591-0.036c0.284-0.024,0.554-0.058,0.809-0.101c0.254-0.042,0.512-0.108,0.772-0.2
		c0.26-0.09,0.488-0.196,0.682-0.317c0.545-0.364,0.818-0.872,0.818-1.526c0-0.364-0.109-0.601-0.327-0.709
		c-0.352-0.17-0.897-0.255-1.636-0.255c-1.018,0-1.727,0.218-2.126,0.654c-0.291,0.315-0.479,0.618-0.563,0.909
		c-0.122,0.352-0.209,0.657-0.264,0.918c-0.055,0.26-0.082,0.402-0.082,0.427C23.811,97.313,23.798,97.374,23.787,97.422z"/>
	<path fill="#FFFFFF" d="M32.992,93.923c0.673-0.684,1.706-1.027,3.099-1.027s2.787,0.316,4.181,0.945l-1.109,8.543
		c-0.073,0.049-0.815,0.121-2.227,0.219c-1.412,0.096-2.281,0.145-2.608,0.145s-0.663-0.049-1.009-0.145
		c-0.345-0.098-0.657-0.268-0.936-0.51c-0.509-0.424-0.812-1.224-0.909-2.398c-0.012-0.146-0.018-0.379-0.018-0.7
		s0.055-0.778,0.164-1.372C31.862,95.841,32.32,94.608,32.992,93.923z M34.655,94.649c-0.352,0.188-0.636,0.537-0.854,1.046
		s-0.379,1.146-0.482,1.908c-0.103,0.764-0.154,1.37-0.154,1.817c0,0.449,0.055,0.807,0.164,1.072
		c0.194,0.485,0.612,0.728,1.254,0.728l3.071-0.091l0.873-6.398c-1.139-0.242-1.981-0.363-2.526-0.363S35.007,94.462,34.655,94.649z
		"/>
	<path fill="#FFFFFF" d="M42.253,93.859c1.151-0.484,2.078-0.788,2.781-0.909c0.703-0.121,1.348-0.182,1.936-0.182
		s1.19,0.025,1.809,0.073l-0.254,1.599c-0.461-0.048-0.888-0.072-1.282-0.072c-0.394,0-0.866,0.027-1.417,0.082
		s-1.239,0.233-2.063,0.536l-1.218,7.634h-1.672L42.253,93.859z"/>
	<path fill="#FFFFFF" d="M55.212,92.806c0.921,0,1.605,0.303,2.054,0.908c0.339,0.461,0.509,0.994,0.509,1.6
		c0,0.193-0.019,0.389-0.055,0.582l-1.072,6.725h-1.672l1.054-6.615c0.024-0.146,0.037-0.337,0.037-0.573s-0.097-0.473-0.291-0.709
		s-0.561-0.354-1.1-0.354c-0.54,0-1.03,0.039-1.472,0.118c-0.442,0.079-1.021,0.258-1.736,0.536l-1.2,7.598h-1.672l1.381-8.725
		c1.32-0.545,2.341-0.863,3.063-0.954C53.761,92.851,54.485,92.806,55.212,92.806z"/>
	<path fill="#FFFFFF" d="M58.483,102.62l1.527-9.651h1.672l-1.527,9.651H58.483z M60.755,89.843h1.182
		c0.242,0,0.363,0.115,0.363,0.346c0,0.035-0.006,0.072-0.018,0.108l-0.164,1.163c-0.048,0.279-0.212,0.418-0.491,0.418h-1.182
		c-0.133,0-0.233-0.039-0.3-0.117c-0.066-0.079-0.088-0.18-0.063-0.301l0.164-1.163C60.295,89.994,60.465,89.843,60.755,89.843z"/>
	<path fill="#FFFFFF" d="M68.807,92.806c0.921,0,1.605,0.303,2.054,0.908c0.339,0.461,0.509,0.994,0.509,1.6
		c0,0.193-0.019,0.389-0.055,0.582l-1.072,6.725h-1.672l1.054-6.615c0.024-0.146,0.037-0.337,0.037-0.573s-0.097-0.473-0.291-0.709
		s-0.561-0.354-1.1-0.354c-0.54,0-1.03,0.039-1.472,0.118c-0.442,0.079-1.021,0.258-1.736,0.536l-1.2,7.598h-1.672l1.381-8.725
		c1.32-0.545,2.341-0.863,3.063-0.954C67.356,92.851,68.08,92.806,68.807,92.806z"/>
	<path fill="#FFFFFF" d="M73.605,98.985c-0.582-0.389-0.873-1.084-0.873-2.091c0-0.206,0.019-0.411,0.055-0.618
		c0.182-1.162,0.584-2.011,1.208-2.544s1.415-0.8,2.372-0.8c0.024,0,0.055,0,0.091,0l1.891,0.036c0.69,0,1.29,0.243,1.799,0.728
		c0.461,0.424,0.691,1.09,0.691,1.999c0,0.775-0.17,1.532-0.51,2.272c-0.23,0.521-0.605,0.975-1.127,1.362
		c-0.521,0.399-1.199,0.601-2.035,0.601h-2.399c-0.024,0-0.079,0-0.164,0c-0.084,0-0.143,0-0.172,0c-0.03,0-0.082,0.008-0.155,0.027
		c-0.072,0.018-0.127,0.039-0.164,0.063c-0.097,0.086-0.161,0.219-0.19,0.4c-0.031,0.182,0.015,0.321,0.136,0.418
		c0.121,0.098,0.297,0.158,0.527,0.182l3.126,0.455c0.691,0.097,1.239,0.357,1.644,0.781c0.406,0.424,0.609,0.902,0.609,1.436
		c0,0.133-0.012,0.273-0.036,0.418l-0.091,0.654c-0.182,1.078-0.521,1.806-1.018,2.182c-0.521,0.387-1.267,0.581-2.236,0.581h-2.436
		c-1.006,0-1.757-0.261-2.254-0.781c-0.375-0.376-0.563-0.854-0.563-1.437c0-0.205,0.024-0.418,0.073-0.636l0.8-4.126
		c0.061-0.399,0.206-0.76,0.436-1.081S73.193,98.985,73.605,98.985z M73.097,104.638c-0.037,0.339-0.055,0.555-0.055,0.645
		c0,0.092,0.037,0.183,0.109,0.273c0.072,0.091,0.142,0.164,0.209,0.218c0.066,0.055,0.16,0.101,0.282,0.137
		c0.193,0.036,0.418,0.054,0.672,0.054h2.436c0.46,0,0.796-0.108,1.009-0.326c0.212-0.219,0.349-0.539,0.409-0.964l0.09-0.454
		c0-0.085,0-0.158,0-0.219c0-0.594-0.417-0.957-1.253-1.09l-3.435-0.51L73.097,104.638z M74.423,96.931
		c0,0.158,0.006,0.279,0.018,0.363c0.012,0.304,0.125,0.564,0.336,0.782s0.524,0.327,0.936,0.327h1.582
		c0.763,0,1.314-0.473,1.654-1.418c0.146-0.399,0.219-0.812,0.219-1.236c0-0.871-0.419-1.309-1.255-1.309h-1.581
		c-0.654,0-1.115,0.207-1.381,0.619C74.599,95.567,74.423,96.192,74.423,96.931z"/>
	<path fill="#FFFFFF" d="M91.199,101.239c0.594,0,0.939-0.297,1.036-0.891l0.146-0.836c0.023-0.098,0.036-0.209,0.036-0.337
		c0-0.127-0.048-0.255-0.146-0.382s-0.314-0.19-0.654-0.19h-2.545c-0.896,0-1.551-0.194-1.963-0.582
		c-0.291-0.29-0.436-0.715-0.436-1.272c0-0.193,0.018-0.405,0.055-0.636l0.145-0.909c0.134-0.812,0.422-1.414,0.863-1.809
		c0.443-0.393,1.055-0.59,1.836-0.59s1.709,0.036,2.781,0.108c1.072,0.073,1.814,0.151,2.227,0.236l-0.2,1.182h-4.635
		c-0.606,0-0.987,0.218-1.146,0.654c-0.023,0.085-0.048,0.188-0.072,0.31L88.4,96.095c-0.072,0.461-0.019,0.74,0.164,0.836
		c0.133,0.073,0.281,0.106,0.445,0.101c0.163-0.007,0.263-0.009,0.299-0.009h2.6c0.8,0,1.387,0.23,1.764,0.69
		c0.29,0.352,0.436,0.775,0.436,1.272c0,0.157-0.012,0.314-0.037,0.473l-0.163,1.145c-0.097,0.643-0.303,1.127-0.618,1.454
		c-0.314,0.315-0.617,0.509-0.908,0.581c-0.424,0.098-0.888,0.146-1.391,0.146s-1.36-0.046-2.572-0.137
		c-1.211-0.091-1.969-0.173-2.271-0.246l0.182-1.162H91.199z"/>
	<path fill="#FFFFFF" d="M104.759,92.933c0.061,0.23,0.091,0.516,0.091,0.854c0,0.34-0.109,0.74-0.327,1.2l-3.78,7.616
		c-0.775,1.586-1.555,2.771-2.336,3.553s-1.645,1.264-2.59,1.445v-1.182c0.678-0.424,1.248-0.948,1.709-1.572
		c0.459-0.624,0.914-1.366,1.362-2.227c-0.425,0-0.83-0.127-1.218-0.382c-0.484-0.315-0.787-0.896-0.908-1.745l-1.037-7.524h1.746
		l0.999,7.325c0.085,0.509,0.46,0.745,1.127,0.709h0.036l3.217-6.453c0.207-0.436,0.357-0.975,0.455-1.617H104.759z"/>
	<path fill="#FFFFFF" d="M110.283,101.257c0.594,0,0.939-0.297,1.037-0.891l0.145-0.781c0.024-0.098,0.037-0.209,0.037-0.336
		c0-0.128-0.049-0.255-0.146-0.383c-0.097-0.127-0.314-0.19-0.654-0.19h-2.544c-0.897,0-1.545-0.193-1.944-0.581
		c-0.304-0.291-0.455-0.715-0.455-1.272c0-0.194,0.019-0.406,0.055-0.636l0.146-0.855c0.134-0.799,0.424-1.396,0.872-1.789
		c0.448-0.395,1.127-0.592,2.036-0.592h8.124l0.781-2.689h1.309l-0.418,2.689h2.654l-0.254,1.473h-2.637l-0.727,4.635
		c-0.072,0.521-0.109,0.888-0.109,1.1c0,0.213,0.031,0.385,0.092,0.518c0.061,0.134,0.139,0.225,0.236,0.273
		c0.096,0.049,0.408,0.143,0.936,0.281c0.527,0.14,0.803,0.209,0.827,0.209l-0.2,1.164h-1.526c-0.86,0-1.448-0.262-1.763-0.782
		c-0.194-0.315-0.291-0.715-0.291-1.2c0-0.484,0.036-0.969,0.109-1.453l0.744-4.708h-7.924c-0.485,0-0.813,0.122-0.982,0.364
		c-0.121,0.182-0.199,0.387-0.236,0.617l-0.127,0.746c-0.072,0.447-0.018,0.721,0.164,0.817c0.133,0.085,0.281,0.121,0.445,0.108
		c0.164-0.012,0.264-0.018,0.3-0.018h2.599c0.801,0,1.388,0.23,1.764,0.69c0.291,0.353,0.436,0.782,0.436,1.29
		c0,0.146-0.018,0.304-0.055,0.473l-0.145,1.072c-0.098,0.643-0.303,1.127-0.618,1.455c-0.315,0.314-0.618,0.509-0.909,0.581
		c-0.424,0.097-0.872,0.146-1.345,0.146s-1.33-0.045-2.571-0.137c-1.242-0.09-2.016-0.178-2.318-0.264l0.182-1.145H110.283z"/>
	<path fill="#FFFFFF" d="M126.623,92.787c1.878,0,2.999,0.454,3.362,1.363c0.134,0.315,0.2,0.594,0.2,0.836
		c0,0.921-0.191,1.64-0.572,2.153c-0.382,0.516-0.809,0.882-1.281,1.1c-0.922,0.4-1.861,0.6-2.818,0.6
		c-0.484,0-0.941-0.026-1.371-0.081c-0.431-0.055-0.713-0.112-0.846-0.173c-0.072,0.484-0.109,0.902-0.109,1.254
		s0.049,0.631,0.146,0.836c0.193,0.377,0.611,0.57,1.254,0.582c0.278,0.012,0.742,0.018,1.391,0.018c0.647,0,1.645-0.096,2.989-0.29
		l-0.2,1.235c-1.26,0.352-2.678,0.527-4.253,0.527c-0.134,0-0.272,0-0.418,0c-1.151-0.012-1.909-0.447-2.272-1.309
		c-0.193-0.46-0.291-1.027-0.291-1.699s0.066-1.357,0.201-2.054c0.133-0.696,0.251-1.233,0.354-1.608
		c0.104-0.375,0.236-0.754,0.4-1.137c0.164-0.381,0.357-0.693,0.582-0.936c0.224-0.242,0.499-0.461,0.826-0.654
		c0.618-0.375,1.521-0.563,2.709-0.563H126.623z M123.461,97.422c0.339,0.036,0.623,0.055,0.854,0.055s0.4,0,0.51,0
		c0.108,0,0.305-0.013,0.59-0.036c0.285-0.024,0.555-0.058,0.809-0.101c0.255-0.042,0.512-0.108,0.773-0.2
		c0.26-0.09,0.487-0.196,0.682-0.317c0.545-0.364,0.817-0.872,0.817-1.526c0-0.364-0.108-0.601-0.327-0.709
		c-0.352-0.17-0.896-0.255-1.636-0.255c-1.019,0-1.727,0.218-2.126,0.654c-0.291,0.315-0.479,0.618-0.564,0.909
		c-0.121,0.352-0.209,0.657-0.264,0.918c-0.055,0.26-0.081,0.402-0.081,0.427C123.484,97.313,123.473,97.374,123.461,97.422z"/>
	<path fill="#FFFFFF" d="M134.757,93.023c0.685-0.146,1.512-0.218,2.481-0.218c0.969,0,1.678,0.26,2.126,0.781
		c1.042-0.375,1.878-0.6,2.509-0.673c0.629-0.072,1.236-0.108,1.817-0.108c0.921,0,1.593,0.303,2.018,0.908
		c0.327,0.449,0.491,0.976,0.491,1.582c0,0.193-0.02,0.393-0.055,0.6l-1.072,6.725h-1.673l1.054-6.615
		c0.025-0.146,0.037-0.337,0.037-0.573s-0.098-0.473-0.291-0.709s-0.57-0.354-1.127-0.354c-1.103,0-2.163,0.213-3.181,0.637
		c0.024,0.145,0.036,0.299,0.036,0.463s-0.018,0.336-0.055,0.518l-1.054,6.635h-1.673l1.055-6.615
		c0.024-0.146,0.037-0.337,0.037-0.573s-0.098-0.473-0.291-0.709c-0.194-0.236-0.561-0.354-1.1-0.354
		c-0.54,0-1.031,0.039-1.473,0.118c-0.442,0.079-1.021,0.258-1.736,0.536l-1.199,7.598h-1.672l1.381-8.725
		C133.203,93.46,134.072,93.169,134.757,93.023z"/>
</g>
<path fill-rule="evenodd" clip-rule="evenodd" fill="#FFFFFF" d="M146.428,77.003c0,1.576,0.001,3.154-0.001,4.729
	c0,0.44-0.038,0.483-0.479,0.483c-0.513,0-1.027,0-1.541,0c-0.44,0-0.487-0.046-0.487-0.479c-0.002-2.113-0.006-4.226,0.006-6.339
	c0.002-0.307-0.059-0.416-0.396-0.414c-2.312,0.016-4.622,0.006-6.933,0.009c-0.922,0.001-1.637,0.415-1.85,1.206
	c-0.22,0.824-0.247,1.694,0.104,2.502c0.299,0.688,0.893,0.992,1.627,0.994c1.82,0.008,3.643,0.01,5.464-0.002
	c0.327-0.004,0.462,0.084,0.448,0.431c-0.023,0.583-0.012,1.169-0.004,1.751c0.004,0.212-0.064,0.341-0.293,0.341
	c-2.042-0.008-4.09,0.065-6.126-0.046c-2.052-0.113-3.302-1.29-3.706-3.324c-0.244-1.23-0.283-2.487,0.118-3.7
	c0.504-1.533,1.697-2.263,3.198-2.584c0.549-0.118,1.109-0.118,1.67-0.116c2.078,0.004,4.157-0.003,6.234,0.008
	c0.299,0,0.385-0.057,0.309-0.376c-0.215-0.897-1.017-1.469-2.15-1.471c-2.301-0.004-4.6,0.003-6.898-0.004
	c-0.938-0.002-0.864,0.148-0.865-0.852c-0.001-0.421,0.006-0.841-0.002-1.261c-0.005-0.26,0.1-0.402,0.363-0.4
	c2.813,0.022,5.63-0.104,8.438,0.059c1.938,0.109,3.251,1.395,3.627,3.299c0.091,0.461,0.129,0.922,0.126,1.389
	C146.424,74.225,146.428,75.614,146.428,77.003z"/>
<path fill-rule="evenodd" clip-rule="evenodd" fill="#FFFFFF" d="M75.375,77.091c0,1.541,0,3.081,0,4.623
	c0,0.451-0.047,0.495-0.501,0.496c-0.503,0-1.004,0-1.507,0c-0.457-0.001-0.506-0.049-0.506-0.494c0-2.113-0.005-4.227,0.006-6.339
	c0.002-0.287-0.037-0.396-0.369-0.394c-2.311,0.02-4.623,0.009-6.935,0.01c-1.262,0-2.004,0.742-2,2.003
	c0,0.382-0.027,0.767,0.048,1.15c0.193,0.989,0.853,1.546,1.856,1.548c1.81,0.002,3.617,0.008,5.429-0.004
	c0.328-0.003,0.463,0.086,0.448,0.436c-0.024,0.571-0.015,1.144-0.004,1.716c0.005,0.248-0.079,0.371-0.338,0.368
	c-2.007-0.019-4.016,0.07-6.02-0.038c-2.003-0.109-3.262-1.179-3.741-3.126c-0.288-1.168-0.288-2.37-0.025-3.537
	c0.396-1.742,1.65-2.596,3.314-2.951c0.377-0.081,0.762-0.098,1.148-0.098c2.241,0.004,4.481,0.002,6.724,0.002
	c0.427,0,0.427,0,0.32-0.422c-0.223-0.892-1.022-1.43-2.146-1.433c-2.417-0.005-4.834-0.001-7.25-0.001c-0.5,0-0.5-0.003-0.5-0.512
	c0-0.539,0.007-1.074-0.004-1.612c-0.006-0.268,0.106-0.392,0.368-0.39c2.788,0.021,5.578-0.082,8.364,0.05
	c1.952,0.091,3.277,1.335,3.694,3.32c0.084,0.401,0.127,0.806,0.126,1.215C75.373,74.149,75.375,75.62,75.375,77.091z"/>
<path fill-rule="evenodd" clip-rule="evenodd" fill="#FFFFFF" d="M95.906,76.411c-1.425,0-2.85,0.01-4.271-0.007
	c-0.286-0.003-0.351,0.083-0.339,0.349c0.015,0.338,0.028,0.674,0.118,1.003c0.336,1.263,1.205,1.937,2.517,1.938
	c2.394,0.002,4.784,0.002,7.178,0.002c0.456,0,0.483,0.027,0.483,0.471c0.002,0.549-0.01,1.099,0.005,1.646
	c0.007,0.291-0.12,0.397-0.396,0.397c-2.73-0.002-5.463,0.017-8.194-0.009c-1.56-0.015-2.837-0.604-3.611-2.04
	c-0.417-0.773-0.599-1.613-0.604-2.487c-0.007-1.704-0.005-3.408-0.002-5.111c0.005-1.266,0.274-2.441,1.269-3.32
	c0.926-0.818,2.05-1.139,3.259-1.146c2.604-0.017,5.204-0.004,7.808-0.004c0.416,0,0.467,0.055,0.467,0.461
	c0.002,0.535-0.016,1.074,0.005,1.609c0.015,0.335-0.104,0.449-0.442,0.449c-2.368-0.011-4.74-0.023-7.108,0
	c-1.074,0.014-1.985,0.392-2.494,1.428c-0.269,0.543-0.256,1.127-0.25,1.711c0.001,0.143,0.087,0.139,0.186,0.139
	c0.197-0.001,0.396-0.001,0.595-0.001c2.696,0,5.393,0,8.089,0c0.493,0.001,0.52,0.026,0.52,0.51
	c0.001,0.536-0.013,1.073,0.004,1.61c0.011,0.31-0.114,0.409-0.411,0.407C98.824,76.405,97.365,76.411,95.906,76.411z"/>
<path fill-rule="evenodd" clip-rule="evenodd" fill="#FFFFFF" d="M7.125,76.411c-1.436,0-2.872,0.007-4.307-0.006
	C2.58,76.404,2.5,76.454,2.507,76.706c0.015,0.422,0.029,0.838,0.162,1.244c0.366,1.109,1.219,1.742,2.388,1.742
	c2.415,0.006,4.831,0.004,7.247,0.004c0.456,0,0.482,0.025,0.482,0.469c0.002,0.49,0.001,0.98,0.001,1.471
	c0,0.574,0,0.574-0.593,0.574c-1.367,0-2.731,0.005-4.098-0.002c-1.39-0.008-2.779,0.062-4.164-0.032
	c-2.148-0.143-3.543-1.467-3.859-3.598C0.024,78.242,0,77.907,0,77.568c0.005-1.774-0.011-3.549,0.015-5.322
	c0.031-2.298,1.535-3.883,3.85-4.107c0.488-0.046,0.976-0.046,1.465-0.046c2.311,0,4.623,0,6.934,0c0.498,0,0.521,0.024,0.522,0.504
	c0,0.538-0.012,1.075,0.005,1.611c0.009,0.307-0.112,0.404-0.414,0.403c-2.38-0.01-4.76-0.007-7.144-0.005
	c-1.26,0.002-2.278,0.689-2.601,1.738c-0.141,0.457-0.11,0.922-0.121,1.388c-0.002,0.229,0.161,0.155,0.269,0.155
	c1.259,0.002,2.522,0.001,3.781,0.001c1.623,0,3.245,0,4.866,0.001c0.416,0,0.472,0.058,0.472,0.458c0.003,0.537,0.003,1.075,0,1.61
	c0,0.408-0.045,0.452-0.469,0.452C9.996,76.412,8.561,76.411,7.125,76.411z"/>
<path fill-rule="evenodd" clip-rule="evenodd" fill="#FFFFFF" d="M121.924,79.698c0.514,0,0.92,0,1.327,0c2.696,0,5.393,0,8.088,0
	c0.506,0,0.517,0.013,0.519,0.51c0,0.501,0,1.004-0.002,1.506c0,0.458-0.04,0.501-0.497,0.501c-3.595,0-7.189,0-10.784,0
	c-0.701,0-1.4-0.009-2.1,0.003c-0.328,0.006-0.471-0.127-0.465-0.457c0.011-0.559,0.019-1.121-0.002-1.68
	c-0.013-0.272,0.08-0.453,0.277-0.632c2.48-2.245,4.954-4.498,7.429-6.749c0.739-0.672,1.474-1.344,2.224-2.029
	c-0.123-0.111-0.258-0.064-0.373-0.064c-3.023-0.002-6.046-0.002-9.066-0.002c-0.506,0-0.512-0.007-0.512-0.51
	c0-0.515,0-1.027,0-1.541c0.002-0.402,0.06-0.465,0.466-0.465c1.796-0.002,3.595-0.002,5.391-0.002c2.498,0,4.997,0,7.494,0
	c0.474,0.001,0.519,0.046,0.519,0.521c0.002,0.571-0.011,1.144,0.008,1.715c0.007,0.234-0.078,0.386-0.243,0.536
	c-3.122,2.835-6.239,5.674-9.358,8.514C122.17,79.456,122.083,79.544,121.924,79.698z"/>
<path fill-rule="evenodd" clip-rule="evenodd" fill="#FFFFFF" d="M103.361,75.749c0.001-1.961-0.001-3.924,0.001-5.885
	c0-1.124,0.624-1.768,1.746-1.77c2.358-0.008,4.717-0.008,7.074,0c1.105,0.002,2.167,0.193,3.025,0.97
	c0.996,0.9,1.422,2.077,1.437,3.377c0.031,3.116,0.008,6.233,0.014,9.351c0.002,0.305-0.125,0.423-0.417,0.419
	c-0.537-0.006-1.071,0-1.61-0.001c-0.432-0.002-0.482-0.055-0.482-0.484c0-2.719,0-5.439,0.002-8.16
	c0-0.375-0.034-0.742-0.143-1.105c-0.328-1.107-1.105-1.755-2.26-1.805c-1.516-0.064-3.034-0.079-4.547,0.004
	c-0.95,0.055-1.335,0.533-1.335,1.481c0,3.176,0,6.351,0,9.526c0,0.494-0.047,0.542-0.536,0.543c-0.5,0-1.003,0.003-1.504-0.001
	c-0.4-0.004-0.464-0.069-0.464-0.472C103.36,79.742,103.361,77.745,103.361,75.749z"/>
<path fill-rule="evenodd" clip-rule="evenodd" fill="#FFFFFF" d="M42.265,73.462c0,1.598,0.05,3.199-0.011,4.796
	c-0.08,2.057-1.308,3.419-3.335,3.828c-0.411,0.083-0.828,0.129-1.25,0.124c-1.574-0.019-3.151,0.063-4.724-0.035
	c-2.023-0.126-3.292-1.221-3.773-3.184c-0.105-0.432-0.16-0.869-0.16-1.318c0.005-3.021,0.001-6.044,0.003-9.068
	c0-0.467,0.042-0.512,0.523-0.512c0.515,0,1.026,0.009,1.542-0.004c0.331-0.008,0.446,0.123,0.445,0.458
	c-0.01,2.742-0.004,5.487-0.006,8.229c-0.001,0.423,0.045,0.837,0.185,1.238c0.367,1.049,1.216,1.669,2.331,1.678
	c1.038,0.01,2.079,0.027,3.116-0.004c1.193-0.035,2.53-0.682,2.626-2.441c0.015-0.303,0.018-0.605,0.018-0.911
	c0-2.579,0-5.157,0-7.739c0-0.479,0.026-0.504,0.521-0.504c0.513,0,1.027,0.008,1.54-0.004c0.313-0.007,0.433,0.113,0.431,0.436
	c-0.011,1.646-0.006,3.291-0.006,4.938C42.276,73.462,42.27,73.462,42.265,73.462z"/>
<path fill-rule="evenodd" clip-rule="evenodd" fill="#FFFFFF" d="M48.228,68.093c0.28,0,0.56,0.011,0.84-0.004
	c0.355-0.02,0.58,0.112,0.742,0.445c1.531,3.162,3.075,6.316,4.616,9.474c0.048,0.099,0.057,0.258,0.201,0.249
	c0.11-0.008,0.129-0.152,0.174-0.242c1.538-3.148,3.08-6.294,4.605-9.445c0.174-0.363,0.404-0.497,0.789-0.482
	c0.572,0.021,1.144,0.006,1.715,0.006c0.466,0,0.503,0.055,0.299,0.473c-1.074,2.209-2.153,4.414-3.23,6.619
	c-1.067,2.188-2.134,4.373-3.201,6.559c-0.127,0.264-0.276,0.514-0.493,0.715c-0.416,0.389-0.927,0.389-1.344,0
	c-0.216-0.203-0.363-0.454-0.492-0.717c-2.14-4.392-4.283-8.783-6.424-13.174c-0.204-0.418-0.171-0.473,0.293-0.475
	C47.619,68.093,47.925,68.093,48.228,68.093z"/>
<path fill-rule="evenodd" clip-rule="evenodd" fill="#FFFFFF" d="M79.463,72.802c0,1.368,0,2.733,0,4.099
	c0,0.511,0.107,0.997,0.334,1.453c0.457,0.925,1.24,1.332,2.238,1.339c1.984,0.012,3.971,0.004,5.953,0.004
	c0.443,0,0.484,0.041,0.486,0.478c0.002,0.55-0.003,1.097,0.002,1.646c0.003,0.259-0.105,0.393-0.373,0.39
	c-2.416-0.02-4.836,0.074-7.249-0.041c-2.048-0.098-3.404-1.367-3.784-3.388c-0.063-0.346-0.095-0.692-0.095-1.043
	c0.002-3.049,0.002-6.096,0.002-9.144c0-0.471,0.027-0.5,0.49-0.502c0.501-0.002,1.005-0.002,1.507,0
	c0.448,0.002,0.489,0.046,0.489,0.506C79.463,70.001,79.463,71.402,79.463,72.802z"/>
<path fill-rule="evenodd" clip-rule="evenodd" fill="#FFFFFF" d="M46.325,75.187c0,2.158,0.002,4.317,0,6.476
	c0,0.513-0.007,0.52-0.533,0.521c-0.514,0-1.029-0.018-1.539,0.006c-0.349,0.016-0.446-0.133-0.445-0.453
	c0.009-1.691,0.005-3.385,0.005-5.074c0-2.685-0.001-5.368,0-8.051c0-0.461,0.056-0.518,0.523-0.518c0.502,0,1.004-0.003,1.506,0
	c0.431,0.002,0.482,0.055,0.482,0.479C46.327,70.778,46.325,72.981,46.325,75.187z"/>
<path fill="#FFFFFF" d="M25.098,77.564l-0.937-0.942c-0.167-0.186-0.149-0.189-0.329-0.009c-0.467,0.474-0.852,0.94-1.323,1.409
	c-0.174,0.174-0.124,0.346,0.054,0.516c0.268,0.256,0.554,0.518,0.847,0.805c-0.487,0.213-0.931,0.347-1.413,0.35
	c-0.841,0.008-1.676,0.002-2.517,0.004c-1.609,0-2.629-0.813-2.997-2.379c-0.059-0.251-0.088-0.503-0.086-0.763
	c0.007-0.946,0.035-1.893-0.002-2.837c-0.075-1.979,1.231-2.774,2.522-3.053c0.301-0.063,0.604-0.059,0.905-0.059
	c0.688,0,1.379,0.02,2.067-0.004c1.824-0.063,2.975,1.102,3.121,2.329C25.16,74.161,25.098,77.564,25.098,77.564z M27.639,74.079
	c0,0,0.007-0.107-0.002-0.457c-0.023-0.873,0.068-1.453-0.088-2.322c-0.385-2.131-1.824-3.25-3.969-3.329
	c-1.703-0.063-3.409,0.063-5.112,0.047c-0.433-0.004-0.86,0.075-1.287,0.157c-2.023,0.387-3.25,1.76-3.392,3.804
	c-0.083,1.2-0.028,2.411-0.027,3.614c0.001,0.922-0.069,1.85,0.047,2.768c0.148,1.168,0.577,2.213,1.517,2.98
	c0.819,0.669,1.793,0.86,2.816,0.865c1.635,0.006,3.27,0.004,4.904,0.004c0.837,0,1.646-0.154,2.399-0.533
	c0.17-0.086,0.263-0.05,0.384,0.077c0.364,0.377,0.744,0.741,1.111,1.117c0.176,0.179,0.328,0.179,0.506-0.003
	c0.456-0.466,0.917-0.93,1.387-1.383c0.211-0.203,0.193-0.363-0.01-0.559c-0.42-0.404-1.375-1.341-1.375-1.341L27.639,74.079z"/>
</svg>
