<?xml version="1.0" encoding="utf-8"?>
<!-- Generator: Adobe Illustrator 15.1.0, SVG Export Plug-In . SVG Version: 6.00 Build 0)  -->
<!DOCTYPE svg PUBLIC "-//W3C//DTD SVG 1.1//EN" "http://www.w3.org/Graphics/SVG/1.1/DTD/svg11.dtd">
<svg version="1.1" id="Layer_1" xmlns="http://www.w3.org/2000/svg" xmlns:xlink="http://www.w3.org/1999/xlink" x="0px" y="0px"
	 width="283.465px" height="283.465px" viewBox="0 0 283.465 283.465" enable-background="new 0 0 283.465 283.465"
	 xml:space="preserve">
<path fill="#5B5B5B" d="M202.871,128.786l-39.176-39.178l-39.167,39.172c-10.501,10.479-16.281,24.416-16.281,39.25
	c0,30.572,24.877,55.455,55.448,55.455c30.578,0,55.457-24.879,55.457-55.455C219.152,153.196,213.371,139.257,202.871,128.786z
	 M163.695,206.438c-21.176,0-38.405-17.229-38.405-38.408c0-10.273,4.008-19.932,11.284-27.195l27.121-27.121l27.135,27.127
	c7.273,7.258,11.279,16.916,11.279,27.189C202.109,189.202,184.875,206.438,163.695,206.438z M107.564,77.882L89.662,59.979
	l-17.897,17.9c-4.804,4.793-7.451,11.166-7.451,17.943c0,13.973,11.372,25.344,25.351,25.344s25.35-11.371,25.35-25.344
	C115.015,89.046,112.367,82.677,107.564,77.882z M89.666,114.784c-10.451,0-18.959-8.502-18.959-18.955
	c0-5.068,1.977-9.834,5.575-13.424l13.384-13.383l13.383,13.383c3.597,3.59,5.576,8.354,5.576,13.42
	C108.625,106.278,100.117,114.784,89.666,114.784z"/>
</svg>
