<?xml version="1.0" encoding="utf-8"?>
<!-- Generator: Adobe Illustrator 15.1.0, SVG Export Plug-In . SVG Version: 6.00 Build 0)  -->
<!DOCTYPE svg PUBLIC "-//W3C//DTD SVG 1.1//EN" "http://www.w3.org/Graphics/SVG/1.1/DTD/svg11.dtd">
<svg version="1.1" id="Layer_1" xmlns="http://www.w3.org/2000/svg" xmlns:xlink="http://www.w3.org/1999/xlink" x="0px" y="0px"
	 width="283.465px" height="283.465px" viewBox="0 0 283.465 283.465" enable-background="new 0 0 283.465 283.465"
	 xml:space="preserve">
<g id="Icons_21_">
	<g>
		<path fill="#5B5B5B" d="M106.986,115.123c1.103,0,2.224-0.189,3.315-0.586l70.371-25.508c5.061-1.832,7.674-7.418,5.841-12.475
			c-1.825-5.055-7.438-7.664-12.472-5.838l-70.375,25.508c-5.058,1.832-7.67,7.418-5.84,12.475
			C99.261,112.66,103.001,115.123,106.986,115.123z"/>
		<path fill="#5B5B5B" d="M114.491,82.898c1.104,0,2.227-0.189,3.316-0.586l50.087-18.15c5.062-1.832,7.674-7.42,5.841-12.477
			c-1.833-5.055-7.438-7.666-12.472-5.836L111.175,64c-5.061,1.832-7.672,7.418-5.84,12.475
			C106.771,80.436,110.511,82.898,114.491,82.898z"/>
		<path fill="#5B5B5B" d="M178.499,168.033h-4.166l0.248-16.689l6.862-4.5c4.494-2.943,5.756-8.982,2.811-13.48
			c-2.95-4.504-8.981-5.752-13.489-2.809l-6.865,4.496c-5.67,3.723-9.057,9.994-9.057,16.779v16.203h-21.827v-16.398
			c0-5.201-2.087-10.098-5.611-13.793l53.271-19.313c5.06-1.832,7.673-7.418,5.84-12.475c-1.825-5.059-7.438-7.658-12.473-5.838
			c0,0-69.494,25.16-74.25,26.953c-4.252,1.602-7.513,8.615-1.035,13.51c3.67,2.771,14.779,10.955,14.779,10.955v16.398h-3.443
			c-5.445,0-9.867,4.42-9.867,9.869v28.566c0,5.449,4.422,9.869,9.867,9.869h8.313v11.537c0,5.701,4.625,10.324,10.324,10.324
			h31.122c5.702,0,10.323-4.623,10.323-10.324v-11.537h8.324c5.449,0,9.868-4.42,9.868-9.869v-28.564
			C188.365,172.453,183.946,168.033,178.499,168.033z"/>
	</g>
</g>
</svg>
