<?xml version="1.0" encoding="utf-8"?>
<!-- Generator: Adobe Illustrator 15.1.0, SVG Export Plug-In . SVG Version: 6.00 Build 0)  -->
<!DOCTYPE svg PUBLIC "-//W3C//DTD SVG 1.1//EN" "http://www.w3.org/Graphics/SVG/1.1/DTD/svg11.dtd">
<svg version="1.1" id="Layer_1" xmlns="http://www.w3.org/2000/svg" xmlns:xlink="http://www.w3.org/1999/xlink" x="0px" y="0px"
	 width="283.465px" height="283.465px" viewBox="0 0 283.465 283.465" enable-background="new 0 0 283.465 283.465"
	 xml:space="preserve">
<g>
	<g>
		<path fill="#3F3F3F" d="M167.975,57.593c-1.436-3.393-3.488-6.438-6.102-9.051c-2.613-2.612-5.658-4.665-9.051-6.1
			c-3.518-1.488-7.249-2.243-11.09-2.243s-7.572,0.755-11.09,2.243c-3.393,1.435-6.438,3.487-9.051,6.1
			c-2.612,2.613-4.666,5.659-6.1,9.051c-1.488,3.519-2.243,7.249-2.243,11.091v96.174c-4.185,3.51-7.718,7.781-10.364,12.562
			c-3.619,6.536-5.531,13.96-5.531,21.467c0,5.987,1.175,11.8,3.492,17.277c2.236,5.286,5.434,10.031,9.507,14.104
			c4.072,4.072,8.818,7.271,14.104,9.507c5.478,2.316,11.291,3.491,17.278,3.491c5.986,0,11.8-1.175,17.277-3.491
			c5.286-2.236,10.031-5.435,14.104-9.507c4.072-4.073,7.271-8.818,9.508-14.104c2.316-5.477,3.491-11.29,3.491-17.277
			c0-7.508-1.913-14.931-5.531-21.467c-2.647-4.78-6.181-9.052-10.364-12.562V68.684C170.217,64.842,169.462,61.111,167.975,57.593z
			 M176.745,198.886c0,19.337-15.676,35.013-35.013,35.013c-19.337,0-35.012-15.676-35.012-35.013
			c0-12.282,6.326-23.086,15.895-29.335V68.684c0-10.559,8.559-19.117,19.117-19.117l0,0c10.558,0,19.117,8.56,19.117,19.117v1.409
			h-16.826c-2.587,0-4.684,2.097-4.684,4.684c0,2.586,2.097,4.684,4.684,4.684h16.827v9.367h-16.827
			c-2.587,0-4.684,2.097-4.684,4.683c0,2.587,2.097,4.684,4.684,4.684h16.827v9.368h-16.827c-2.587,0-4.684,2.097-4.684,4.684
			c0,2.586,2.097,4.684,4.684,4.684h16.827v52.622C170.419,175.8,176.745,186.604,176.745,198.886z"/>
		<path fill="#3F3F3F" d="M156.865,175.651l-3.303-2.157v-3.943v-33.805c0-6.524-5.307-11.831-11.831-11.831
			s-11.831,5.307-11.831,11.831v33.805v3.943l-3.302,2.157c-7.886,5.148-12.594,13.835-12.594,23.234
			c0,7.405,2.884,14.369,8.121,19.605c5.237,5.237,12.2,8.121,19.606,8.121s14.37-2.884,19.606-8.121
			c5.236-5.236,8.121-12.2,8.121-19.605C169.459,189.486,164.75,180.801,156.865,175.651z"/>
	</g>
</g>
</svg>
